<svg width="304" height="230" viewBox="0 0 304 230" fill="none" xmlns="http://www.w3.org/2000/svg">
<mask id="mask0_1363_9978" style="mask-type:alpha" maskUnits="userSpaceOnUse" x="0" y="0" width="304" height="230">
<rect width="304" height="230" rx="24" fill="#F8F8F8"/>
</mask>
<g mask="url(#mask0_1363_9978)">
<path d="M196.618 393.903L1.23064 369.884L30.9307 197.2M196.618 393.903L30.9307 197.2M196.618 393.903L169.186 255.886L210.56 113.788M30.9307 197.2L112.279 159.425M210.56 113.788L259.239 223.167L341.932 131.041M210.56 113.788L341.932 131.041M210.56 113.788L255.989 -90.8432M210.56 113.788L112.279 159.425M341.932 131.041L362.682 -20.1041M341.932 131.041L255.989 -90.8432M362.682 -20.1041L255.989 -90.8432M362.682 -20.1041L487.276 7.55632L390.171 -206.978M255.989 -90.8432L70.7283 56.8357M255.989 -90.8432L112.279 159.425M255.989 -90.8432L390.171 -206.978M255.989 -90.8432L169.27 -97.2894M255.989 -90.8432L160.316 -195.721M255.989 -90.8432L266.765 -181.687M70.7283 56.8357L112.279 159.425M70.7283 56.8357L169.27 -97.2894M390.171 -206.978L266.765 -181.687M169.27 -97.2894L160.316 -195.721M160.316 -195.721L266.765 -181.687" stroke="#3BB8BC" stroke-width="1.81624" stroke-linecap="round" stroke-linejoin="round"/>
<path d="M91.9967 139.041L236.89 275.141M91.9967 139.041L116.737 223.451M91.9967 139.041L160.196 101.47L179.979 158.573M236.89 275.141L194.563 78.1283M236.89 275.141L285.1 98.2278M236.89 275.141L116.737 223.451M236.89 275.141L179.979 158.573M194.563 78.1283L285.1 98.2278M194.563 78.1283L408.514 60.1095M194.563 78.1283L179.979 158.573M194.563 78.1283L189.231 -85.6559M194.563 78.1283L233.649 4.01626M194.563 78.1283L325.344 -17.3196M285.1 98.2278L408.514 60.1095M116.737 223.451L64.4928 331.849L139.52 371.275L116.737 223.451ZM408.514 60.1095L325.344 -17.3196M408.514 60.1095L491.116 -64.7312M408.514 60.1095L412.895 -51.7922L339.375 -108.688M339.375 -108.688L233.649 4.01626M339.375 -108.688L189.231 -85.6559M339.375 -108.688L325.344 -17.3196M339.375 -108.688L491.116 -64.7312M339.375 -108.688L373.815 -193.286M189.231 -85.6559L233.649 4.01626M189.231 -85.6559L373.815 -193.286M491.116 -64.7312L373.815 -193.286" stroke="#3BB8BC" stroke-opacity="0.3" stroke-width="1.21083" stroke-linecap="round" stroke-linejoin="round"/>
</g>
</svg>
