<svg width="163" height="189" viewBox="0 0 163 189" fill="none" xmlns="http://www.w3.org/2000/svg">
<path d="M165.485 352.829L6.68926 333.411L30.8273 193.805M165.485 352.829L30.8273 193.805M165.485 352.829L143.191 241.25L176.817 126.37M30.8273 193.805L96.9408 163.266M176.817 126.37L216.38 214.798L283.587 140.318M176.817 126.37L283.587 140.318M176.817 126.37L213.738 -39.0635M176.817 126.37L96.9408 163.266M283.587 140.318L300.45 18.1254M283.587 140.318L213.738 -39.0635M300.45 18.1254L213.738 -39.0635M300.45 18.1254L401.712 40.4875L322.792 -132.952M213.738 -39.0635L63.1718 80.3273M213.738 -39.0635L96.9408 163.266M213.738 -39.0635L322.792 -132.952M213.738 -39.0635L143.259 -44.2749M213.738 -39.0635L135.982 -123.852M213.738 -39.0635L222.496 -112.506M63.1718 80.3273L96.9408 163.266M63.1718 80.3273L143.259 -44.2749M322.792 -132.952L222.496 -112.506M143.259 -44.2749L135.982 -123.852M135.982 -123.852L222.496 -112.506" stroke="#3BB8BC" stroke-width="1.47611" stroke-linecap="round" stroke-linejoin="round"/>
<path d="M80.4571 146.786L198.216 256.816M80.4571 146.786L100.564 215.027M80.4571 146.786L135.884 116.412L151.963 162.577M198.216 256.816L163.815 97.5409M198.216 256.816L237.397 113.79M198.216 256.816L100.564 215.027M198.216 256.816L151.963 162.577M163.815 97.5409L237.397 113.79M163.815 97.5409L337.699 82.9736M163.815 97.5409L151.963 162.577M163.815 97.5409L159.482 -34.8703M163.815 97.5409L195.582 37.6251M163.815 97.5409L270.105 20.3761M237.397 113.79L337.699 82.9736M100.564 215.027L58.104 302.661L119.08 334.535L100.564 215.027ZM337.699 82.9736L270.105 20.3761M337.699 82.9736L404.832 -17.9538M337.699 82.9736L341.26 -7.49321L281.508 -53.4905M281.508 -53.4905L195.582 37.6251M281.508 -53.4905L159.482 -34.8703M281.508 -53.4905L270.105 20.3761M281.508 -53.4905L404.832 -17.9538M281.508 -53.4905L309.499 -121.883M159.482 -34.8703L195.582 37.6251M159.482 -34.8703L309.499 -121.883M404.832 -17.9538L309.499 -121.883" stroke="#3BB8BC" stroke-opacity="0.3" stroke-width="0.984072" stroke-linecap="round" stroke-linejoin="round"/>
</svg>
