<svg width="163" height="230" viewBox="0 0 163 230" fill="none" xmlns="http://www.w3.org/2000/svg">
<path d="M165.485 354.696L6.68926 335.174L30.8273 194.83M165.485 354.696L30.8273 194.83M165.485 354.696L143.191 242.526L176.817 127.038M30.8273 194.83L96.9408 164.129M176.817 127.038L216.38 215.934L283.587 141.06M176.817 127.038L283.587 141.06M176.817 127.038L213.738 -39.2706M176.817 127.038L96.9408 164.129M283.587 141.06L300.45 18.2209M283.587 141.06L213.738 -39.2706M300.45 18.2209L213.738 -39.2706M300.45 18.2209L401.712 40.7013L322.792 -133.656M213.738 -39.2706L63.1718 80.7519M213.738 -39.2706L96.9408 164.129M213.738 -39.2706L322.792 -133.656M213.738 -39.2706L143.259 -44.5096M213.738 -39.2706L135.982 -124.508M213.738 -39.2706L222.496 -113.102M63.1718 80.7519L96.9408 164.129M63.1718 80.7519L143.259 -44.5096M322.792 -133.656L222.496 -113.102M143.259 -44.5096L135.982 -124.508M135.982 -124.508L222.496 -113.102" stroke="#3BB8BC" stroke-width="1.47611" stroke-linecap="round" stroke-linejoin="round"/>
<path d="M80.4571 147.562L198.216 258.174M80.4571 147.562L100.564 216.164M80.4571 147.562L135.884 117.027L151.963 163.436M198.216 258.174L163.815 98.0563M198.216 258.174L237.397 114.392M198.216 258.174L100.564 216.164M198.216 258.174L151.963 163.436M163.815 98.0563L237.397 114.392M163.815 98.0563L337.699 83.4119M163.815 98.0563L151.963 163.436M163.815 98.0563L159.482 -35.0555M163.815 98.0563L195.582 37.8235M163.815 98.0563L270.105 20.4833M237.397 114.392L337.699 83.4119M100.564 216.164L58.104 304.262L119.08 336.305L100.564 216.164ZM337.699 83.4119L270.105 20.4833M337.699 83.4119L404.832 -18.0494M337.699 83.4119L341.26 -7.53352L281.508 -53.7742M281.508 -53.7742L195.582 37.8235M281.508 -53.7742L159.482 -35.0555M281.508 -53.7742L270.105 20.4833M281.508 -53.7742L404.832 -18.0494M281.508 -53.7742L309.499 -122.529M159.482 -35.0555L195.582 37.8235M159.482 -35.0555L309.499 -122.529M404.832 -18.0494L309.499 -122.529" stroke="#3BB8BC" stroke-opacity="0.3" stroke-width="0.984072" stroke-linecap="round" stroke-linejoin="round"/>
</svg>
