<svg width="18" height="14" viewBox="0 0 18 14" fill="none" xmlns="http://www.w3.org/2000/svg">
<path d="M9 13.75C5.25 13.75 2.4 11.65 0.15 7.375L0 7L0.15 6.625C2.4 2.35 5.25 0.25 9 0.25C12.75 0.25 15.6 2.35 17.85 6.625L18 7L17.85 7.375C15.6 11.65 12.75 13.75 9 13.75ZM1.725 7C3.6 10.525 6 12.25 9 12.25C12 12.25 14.4 10.525 16.275 7C14.4 3.475 12 1.75 9 1.75C6 1.75 3.6 3.475 1.725 7Z" fill="#A9AEB9"/>
<path d="M9 10.75C6.9 10.75 5.25 9.1 5.25 7C5.25 4.9 6.9 3.25 9 3.25C11.1 3.25 12.75 4.9 12.75 7C12.75 9.1 11.1 10.75 9 10.75ZM9 4.75C7.725 4.75 6.75 5.725 6.75 7C6.75 8.275 7.725 9.25 9 9.25C10.275 9.25 11.25 8.275 11.25 7C11.25 5.725 10.275 4.75 9 4.75Z" fill="#A9AEB9"/>
</svg>
