<svg xmlns="http://www.w3.org/2000/svg" width="50" height="50" fill="none"><path fill="#fff" d="M40.625 18.75a3.125 3.125 0 0 0 3.125-3.125v-6.25a3.125 3.125 0 0 0-3.125-3.125h-6.25a3.125 3.125 0 0 0-3.125 3.125v1.563h-12.5V9.374a3.125 3.125 0 0 0-3.125-3.125h-6.25A3.125 3.125 0 0 0 6.25 9.375v6.25a3.125 3.125 0 0 0 3.125 3.125h1.563v12.5H9.374a3.125 3.125 0 0 0-3.125 3.125v6.25a3.125 3.125 0 0 0 3.125 3.125h6.25a3.125 3.125 0 0 0 3.125-3.125v-1.563h12.5v1.563a3.125 3.125 0 0 0 3.125 3.125h6.25a3.125 3.125 0 0 0 3.125-3.125v-6.25a3.125 3.125 0 0 0-3.125-3.125h-1.563v-12.5h1.563Zm-4.688 12.5h-1.562a3.125 3.125 0 0 0-3.125 3.125v1.563h-12.5v-1.563a3.125 3.125 0 0 0-3.125-3.125h-1.563v-12.5h1.563a3.125 3.125 0 0 0 3.125-3.125v-1.563h12.5v1.563a3.125 3.125 0 0 0 3.125 3.125h1.563v12.5Z"/></svg>