<svg xmlns="http://www.w3.org/2000/svg" width="50" height="50" fill="none"><path fill="#fff" d="M42.188 7.813H7.812a3.125 3.125 0 0 0-3.125 3.125v28.124a3.125 3.125 0 0 0 3.125 3.126h34.376a3.125 3.125 0 0 0 3.124-3.126V10.939a3.125 3.125 0 0 0-3.124-3.126ZM18.125 28.438a1.562 1.562 0 1 1-1.875 2.5L10 26.25a1.563 1.563 0 0 1 0-2.5l6.25-4.688a1.563 1.563 0 0 1 1.875 2.5L13.541 25l4.584 3.438Zm11.502-13.946-6.25 21.875a1.564 1.564 0 1 1-3.004-.86l6.25-21.874a1.563 1.563 0 0 1 3.004.86ZM40 26.25l-6.25 4.688a1.563 1.563 0 0 1-1.875-2.5L36.459 25l-4.584-3.438a1.563 1.563 0 0 1 1.875-2.5L40 23.75a1.561 1.561 0 0 1 0 2.5Z"/></svg>