<svg width="50" height="50" fill="none" xmlns="http://www.w3.org/2000/svg"><path d="M45.313 40.625a1.563 1.563 0 0 1-1.563 1.563H6.25a1.563 1.563 0 1 1 0-3.126h37.5a1.563 1.563 0 0 1 1.563 1.563Zm0-29.688v21.876a3.125 3.125 0 0 1-3.126 3.124H7.813a3.125 3.125 0 0 1-3.125-3.124V10.936a3.125 3.125 0 0 1 3.125-3.124h34.374a3.125 3.125 0 0 1 3.126 3.125ZM32.03 21.876a1.562 1.562 0 0 0-.724-1.318l-8.594-5.47a1.562 1.562 0 0 0-2.4 1.32v10.937a1.562 1.562 0 0 0 2.4 1.318l8.594-5.469a1.563 1.563 0 0 0 .724-1.318Z" fill="#fff"/></svg>