<svg width="1290" height="891" viewBox="0 0 1290 891" fill="none" xmlns="http://www.w3.org/2000/svg">
<path d="M1170.33 507.437L1431.28 256.205L1196.77 34.9408M1170.33 507.437L1196.77 34.9408M1170.33 507.437L1058.2 274.054L840.309 110.691M1196.77 34.9408L1035.34 69.2455M840.309 110.691L889.542 325.416L666.076 281.235M840.309 110.691L666.076 281.235M840.309 110.691L547.362 -140.199M840.309 110.691L1035.34 69.2455M666.076 281.235L468.54 81.7732M666.076 281.235L547.362 -140.199M468.54 81.7732L547.362 -140.199M468.54 81.7732L315.779 260.142L221.608 -162.811M547.362 -140.199L983.123 -127.612M547.362 -140.199L1035.34 69.2455M547.362 -140.199L221.608 -162.811M547.362 -140.199L667.833 -245.503M547.362 -140.199L572.247 -400.225M547.362 -140.199L431.129 -261.957M983.123 -127.612L1035.34 69.2455M983.123 -127.612L667.833 -245.503M221.608 -162.811L431.129 -261.957M667.833 -245.503L572.247 -400.225M572.247 -400.225L431.129 -261.957" stroke="#3BB8BC" stroke-width="3.34199" stroke-linecap="round" stroke-linejoin="round"/>
<path d="M1042.66 16.8431L979.855 377.195M1042.66 16.8431L1099.53 168.377M1042.66 16.8431L900.804 36.9191L934.791 142.798M979.855 377.195L824.446 40.5477M979.855 377.195L713.442 170.16M979.855 377.195L1099.53 168.377M979.855 377.195L934.791 142.798M824.446 40.5477L713.442 170.16M824.446 40.5477L489.737 250.439M824.446 40.5477L934.791 142.798M824.446 40.5477L651.319 -206.33M824.446 40.5477L685.047 -25.31M824.446 40.5477L526.555 44.615M713.442 170.16L489.737 250.439M1099.53 168.377L1296.17 270.144L1229.35 411.054L1099.53 168.377ZM489.737 250.439L526.555 44.615M489.737 250.439L230.257 158.024M489.737 250.439L359.646 90.6323L404.953 -74.3171M404.953 -74.3171L685.047 -25.31M404.953 -74.3171L651.319 -206.33M404.953 -74.3171L526.555 44.615M404.953 -74.3171L230.257 158.024M404.953 -74.3171L260.804 -160.737M651.319 -206.33L685.047 -25.31M651.319 -206.33L260.804 -160.737M230.257 158.024L260.804 -160.737" stroke="#3BB8BC" stroke-opacity="0.3" stroke-width="2.22799" stroke-linecap="round" stroke-linejoin="round"/>
<g filter="url(#filter0_df_1363_8259)">
<circle cx="219.865" cy="219.865" r="219.865" transform="matrix(-0.69437 -0.719618 -0.719618 0.69437 1074.05 -136.818)" fill="#09C4C3" fill-opacity="0.05" shape-rendering="crispEdges"/>
</g>
<defs>
<filter id="filter0_df_1363_8259" x="43.3018" y="-862.234" width="1439.73" height="1439.73" filterUnits="userSpaceOnUse" color-interpolation-filters="sRGB">
<feFlood flood-opacity="0" result="BackgroundImageFix"/>
<feColorMatrix in="SourceAlpha" type="matrix" values="0 0 0 0 0 0 0 0 0 0 0 0 0 0 0 0 0 0 127 0" result="hardAlpha"/>
<feOffset/>
<feGaussianBlur stdDeviation="125"/>
<feComposite in2="hardAlpha" operator="out"/>
<feColorMatrix type="matrix" values="0 0 0 0 0.0352941 0 0 0 0 0.768627 0 0 0 0 0.764706 0 0 0 1 0"/>
<feBlend mode="normal" in2="BackgroundImageFix" result="effect1_dropShadow_1363_8259"/>
<feBlend mode="normal" in="SourceGraphic" in2="effect1_dropShadow_1363_8259" result="shape"/>
<feGaussianBlur stdDeviation="250" result="effect2_foregroundBlur_1363_8259"/>
</filter>
</defs>
</svg>
