<svg width="287" height="300" viewBox="0 0 287 300" fill="none" xmlns="http://www.w3.org/2000/svg">
<mask id="mask0_1363_9145" style="mask-type:alpha" maskUnits="userSpaceOnUse" x="0" y="0" width="287" height="300">
<rect width="287" height="300" fill="#D9D9D9"/>
</mask>
<g mask="url(#mask0_1363_9145)">
<g filter="url(#filter0_df_1363_9145)">
<circle cx="55.8099" cy="55.8099" r="55.8099" transform="matrix(-0.418434 -0.908247 -0.908247 0.418434 310.082 90.3789)" fill="#09C4C3" fill-opacity="0.05" shape-rendering="crispEdges"/>
</g>
<path d="M230.435 185.197L313.988 146.816L276.296 74.1712M230.435 185.197L276.296 74.1712M230.435 185.197L223.083 119.884L184.53 62.5064M276.296 74.1712L234.739 68.8886M184.53 62.5064L178.367 118.085L128.507 88.8039M184.53 62.5064L128.507 88.8039M184.53 62.5064L135.31 -22.1269M184.53 62.5064L234.739 68.8886M128.507 88.8039L97.8518 24.477M128.507 88.8039L135.31 -22.1269M97.8518 24.477L135.31 -22.1269M97.8518 24.477L46.3205 54.4457L59.1324 -54.7959M135.31 -22.1269L238.691 17.3419M135.31 -22.1269L234.739 68.8886M135.31 -22.1269L59.1324 -54.7959M135.31 -22.1269L172.991 -37.2861M135.31 -22.1269L163.026 -82.3625M135.31 -22.1269L117.639 -61.0302M238.691 17.3419L234.739 68.8886M238.691 17.3419L172.991 -37.2861M59.1324 -54.7959L117.639 -61.0302M172.991 -37.2861L163.026 -82.3625M163.026 -82.3625L117.639 -61.0302" stroke="#3BB8BC" stroke-width="2.2414" stroke-linecap="round" stroke-linejoin="round"/>
<path d="M240.876 56.9424L195.68 138.05M240.876 56.9424L241.829 98.0158M240.876 56.9424L205.199 49.8871L204.488 78.1049M195.68 138.05L186.596 44.3692M195.68 138.05L149.151 66.1461M195.68 138.05L241.829 98.0158M195.68 138.05L204.488 78.1049M186.596 44.3692L149.151 66.1461M186.596 44.3692L88.8223 66.6724M186.596 44.3692L204.488 78.1049M186.596 44.3692L165.756 -29.2792M186.596 44.3692L158.697 16.9249M186.596 44.3692L114.864 20.4249M149.151 66.1461L88.8223 66.6724M241.829 98.0158L280.443 138.854L252.64 167.034L241.829 98.0158ZM88.8223 66.6724L114.864 20.4249M88.8223 66.6724L34.3666 22.8185M88.8223 66.6724L71.0132 17.491L95.6698 -18.2503M95.6698 -18.2503L158.697 16.9249M95.6698 -18.2503L165.756 -29.2792M95.6698 -18.2503L114.864 20.4249M95.6698 -18.2503L34.3666 22.8185M95.6698 -18.2503L68.3523 -51.0198M165.756 -29.2792L158.697 16.9249M165.756 -29.2792L68.3523 -51.0198M34.3666 22.8185L68.3523 -51.0198" stroke="#3BB8BC" stroke-opacity="0.3" stroke-width="1.49426" stroke-linecap="round" stroke-linejoin="round"/>
</g>
<defs>
<filter id="filter0_df_1363_9145" x="12.5474" y="-160.451" width="446.985" height="446.985" filterUnits="userSpaceOnUse" color-interpolation-filters="sRGB">
<feFlood flood-opacity="0" result="BackgroundImageFix"/>
<feColorMatrix in="SourceAlpha" type="matrix" values="0 0 0 0 0 0 0 0 0 0 0 0 0 0 0 0 0 0 127 0" result="hardAlpha"/>
<feOffset/>
<feGaussianBlur stdDeviation="83.8347"/>
<feComposite in2="hardAlpha" operator="out"/>
<feColorMatrix type="matrix" values="0 0 0 0 0.0352941 0 0 0 0 0.768627 0 0 0 0 0.764706 0 0 0 1 0"/>
<feBlend mode="normal" in2="BackgroundImageFix" result="effect1_dropShadow_1363_9145"/>
<feBlend mode="normal" in="SourceGraphic" in2="effect1_dropShadow_1363_9145" result="shape"/>
<feGaussianBlur stdDeviation="70.25" result="effect2_foregroundBlur_1363_9145"/>
</filter>
</defs>
</svg>
