<svg width="70" height="70" viewBox="0 0 70 70" fill="none" xmlns="http://www.w3.org/2000/svg">
<circle cx="35" cy="35" r="35" fill="#455A64"/>
<path d="M37.4991 39.3086H30.0352V46.7739H37.4991V39.3086Z" fill="white"/>
<path d="M37.5006 18.957V30.3086L14.5859 46.7784V35.4232L37.5006 18.957Z" fill="white"/>
<path d="M54.6667 28.7877L44.0153 34.0413L37.498 30.3086V18.957L54.6667 28.7877Z" fill="white"/>
<path d="M54.6715 28.7871V40.1387L41.2129 46.7778V45.3812L44.0055 44.0066V42.9098L41.2129 44.2881V42.8915L44.0055 41.5169V40.4202L41.2129 41.7984V40.4055L44.0055 39.0236V37.9305L41.2129 39.3088V37.9122L44.0055 36.5376V35.4408L41.2129 36.8191V35.4262L44.0201 34.0406L54.6715 28.7871Z" fill="white"/>
</svg>
