<svg width="70" height="70" viewBox="0 0 70 70" fill="none" xmlns="http://www.w3.org/2000/svg">
<circle cx="35" cy="35" r="35" fill="#F8F8F8"/>
<mask id="mask0_1389_379" style="mask-type:luminance" maskUnits="userSpaceOnUse" x="8" y="8" width="54" height="54">
<path d="M35 62C49.9117 62 62 49.9117 62 35C62 20.0883 49.9117 8 35 8C20.0883 8 8 20.0883 8 35C8 49.9117 20.0883 62 35 62Z" fill="white"/>
</mask>
<g mask="url(#mask0_1389_379)">
<path d="M33.8007 13.989V15.8L19.8828 7.75823L5.96484 15.8V13.989L18.3124 6.85909L19.8828 5.94727L21.4531 6.85909L33.8007 13.989Z" fill="#212982"/>
<path d="M11.7017 5.94727H14.8551L5.96484 11.0763V9.26527L11.7017 5.94727Z" fill="#212982"/>
<path d="M33.8004 9.26722V11.0782L24.9102 5.94922H28.0635L33.8004 9.26722Z" fill="#212982"/>
<path d="M33.8007 18.7136V20.5246L19.8828 12.4828L5.96484 20.5246V18.7136L18.3124 11.5837L19.8828 10.6719L21.4531 11.5837L33.8007 18.7136Z" fill="#212982"/>
<path d="M33.8007 23.4363V25.2472L19.8828 17.2055L5.96484 25.2472V23.4363L18.3124 16.3064L19.8828 15.3945L21.4531 16.3064L33.8007 23.4363Z" fill="#212982"/>
<path d="M33.8007 28.1482V29.9719L19.8828 21.9301L5.96484 29.9719V28.1482L18.3124 21.0183L19.8828 20.1191L21.4531 21.0183L33.8007 28.1482Z" fill="#212982"/>
<path d="M33.8007 32.8709V33.7954H32.243L19.8828 26.6528L7.52253 33.7954H5.96484V32.8709L18.3124 25.7409L19.8828 24.8418L21.4531 25.7409L33.8007 32.8709Z" fill="#212982"/>
<path d="M27.212 33.7962H24.0586L19.8794 31.3774L15.7003 33.7962H12.5469L18.3091 30.4656L19.8794 29.5664L21.4498 30.4656L27.212 33.7962Z" fill="#212982"/>
<path d="M50.1557 16.0547C48.0534 16.0547 46.3438 17.7643 46.3438 19.8666C46.3438 21.9688 48.0534 23.6785 50.1557 23.6785C52.2579 23.6785 53.9676 21.9688 53.9676 19.8666C53.9676 17.7643 52.2579 16.0547 50.1557 16.0547ZM50.1557 22.1082C48.9146 22.1082 47.9141 21.1077 47.9141 19.8666C47.9141 18.6255 48.9146 17.6251 50.1557 17.6251C51.3967 17.6251 52.3972 18.6255 52.3972 19.8666C52.3972 21.1077 51.3967 22.1082 50.1557 22.1082Z" fill="#4885D0"/>
<path d="M50.1583 11.5723C45.5866 11.5723 41.8633 15.2955 41.8633 19.8673C41.8633 24.439 45.5866 28.1623 50.1583 28.1623C54.7301 28.1623 58.4533 24.439 58.4533 19.8673C58.4533 15.2955 54.7301 11.5723 50.1583 11.5723ZM50.1583 26.5793C46.4477 26.5793 43.4336 23.5652 43.4336 19.8546C43.4336 16.144 46.4477 13.13 50.1583 13.13C53.8689 13.13 56.883 16.144 56.883 19.8546C56.883 23.5652 53.8689 26.5793 50.1583 26.5793Z" fill="#4885D0"/>
<path d="M50.1551 7.10156C43.1138 7.10156 37.377 12.8258 37.377 19.8797C37.377 26.9337 43.1012 32.6579 50.1551 32.6579C57.209 32.6579 62.9332 26.9337 62.9332 19.8797C62.9332 12.8258 57.209 7.10156 50.1551 7.10156ZM50.1551 31.0748C43.975 31.0748 38.96 26.0472 38.96 19.8797C38.96 13.7123 43.9876 8.68458 50.1551 8.68458C56.3225 8.68458 61.3502 13.7123 61.3502 19.8797C61.3502 26.0472 56.3225 31.0748 50.1551 31.0748Z" fill="#4885D0"/>
<path d="M60.3402 5.94822H57.3641C60.2388 7.4426 62.5944 9.79813 64.0887 12.6602V9.68415C63.0376 8.2531 61.7712 6.98667 60.3402 5.93555V5.94822ZM57.3767 33.7967H60.3528C61.7839 32.7456 63.0376 31.4918 64.0887 30.0608V27.0847C62.5944 29.9468 60.2515 32.3023 57.3767 33.7967ZM36.2402 27.072V30.0481C37.2914 31.4792 38.5578 32.7456 39.9888 33.7967H42.9649C40.0902 32.3023 37.7346 29.9468 36.2529 27.072H36.2402ZM40.0015 5.94822C38.5704 6.99935 37.2914 8.26576 36.2402 9.69681V12.6729C37.7346 9.79813 40.0902 7.4426 42.9649 5.94822H39.9888H40.0015Z" fill="#4885D0"/>
<path d="M39.1929 53.2745C40.054 54.7055 40.054 56.4785 39.1929 57.9096L38.2177 59.5306C37.6605 60.4551 37.6605 61.6202 38.2177 62.5447L39.1296 64.0644H37.2933L36.8627 63.3552C36.4321 62.646 36.2168 61.8355 36.2168 61.0376C36.2168 60.2398 36.4321 59.4419 36.8627 58.7201L37.8378 57.0991C38.395 56.1746 38.395 55.0095 37.8378 54.085L36.8627 52.464C36.4321 51.7548 36.2168 50.9443 36.2168 50.1464C36.2168 49.3486 36.4321 48.5508 36.8627 47.8289L37.8378 46.2079C38.395 45.2834 38.395 44.1183 37.8378 43.1938L36.8627 41.5728C36.4321 40.8636 36.2168 40.0531 36.2168 39.2553C36.2168 38.4574 36.4321 37.6596 36.8627 36.9377L37.2933 36.2285H39.1296L38.2177 37.7482C37.6605 38.6727 37.6605 39.8378 38.2177 40.7623L39.1929 42.3833C40.054 43.8144 40.054 45.5873 39.1929 47.0184L38.2177 48.6394C37.6605 49.5639 37.6605 50.729 38.2177 51.6535L39.1929 53.2745Z" fill="#212982"/>
<path d="M44.0425 53.2745C44.9037 54.7055 44.9037 56.4785 44.0425 57.9096L43.0673 59.5306C42.5101 60.4551 42.5101 61.6202 43.0673 62.5447L43.9792 64.0644H42.1429L41.7123 63.3552C41.2817 62.646 41.0664 61.8355 41.0664 61.0376C41.0664 60.2398 41.2817 59.4419 41.7123 58.7201L42.6874 57.0991C43.2446 56.1746 43.2446 55.0095 42.6874 54.085L41.7123 52.464C41.2817 51.7548 41.0664 50.9443 41.0664 50.1464C41.0664 49.3486 41.2817 48.5508 41.7123 47.8289L42.6874 46.2079C43.2446 45.2834 43.2446 44.1183 42.6874 43.1938L41.7123 41.5728C41.2817 40.8636 41.0664 40.0531 41.0664 39.2553C41.0664 38.4574 41.2817 37.6596 41.7123 36.9377L42.1429 36.2285H43.9792L43.0673 37.7482C42.5101 38.6727 42.5101 39.8378 43.0673 40.7623L44.0425 42.3833C44.9037 43.8144 44.9037 45.5873 44.0425 47.0184L43.0673 48.6394C42.5101 49.5639 42.5101 50.729 43.0673 51.6535L44.0425 53.2745Z" fill="#212982"/>
<path d="M48.894 53.2745C49.7552 54.7055 49.7552 56.4785 48.894 57.9096L47.9189 59.5306C47.3617 60.4551 47.3617 61.6202 47.9189 62.5447L48.8307 64.0644H46.9944L46.5638 63.3552C46.1333 62.646 45.918 61.8355 45.918 61.0376C45.918 60.2398 46.1333 59.4419 46.5638 58.7201L47.539 57.0991C48.0962 56.1746 48.0962 55.0095 47.539 54.085L46.5638 52.464C46.1333 51.7548 45.918 50.9443 45.918 50.1464C45.918 49.3486 46.1333 48.5508 46.5638 47.8289L47.539 46.2079C48.0962 45.2834 48.0962 44.1183 47.539 43.1938L46.5638 41.5728C46.1333 40.8636 45.918 40.0531 45.918 39.2553C45.918 38.4574 46.1333 37.6596 46.5638 36.9377L46.9944 36.2285H48.8307L47.9189 37.7482C47.3617 38.6727 47.3617 39.8378 47.9189 40.7623L48.894 42.3833C49.7552 43.8144 49.7552 45.5873 48.894 47.0184L47.9189 48.6394C47.3617 49.5639 47.3617 50.729 47.9189 51.6535L48.894 53.2745Z" fill="#212982"/>
<path d="M53.7261 53.2745C54.5873 54.7055 54.5873 56.4785 53.7261 57.9096L52.7509 59.5306C52.1937 60.4551 52.1937 61.6202 52.7509 62.5447L53.6628 64.0644H51.8265L51.3959 63.3552C50.9653 62.646 50.75 61.8355 50.75 61.0376C50.75 60.2398 50.9653 59.4419 51.3959 58.7201L52.371 57.0991C52.9282 56.1746 52.9282 55.0095 52.371 54.085L51.3959 52.464C50.9653 51.7548 50.75 50.9443 50.75 50.1464C50.75 49.3486 50.9653 48.5508 51.3959 47.8289L52.371 46.2079C52.9282 45.2834 52.9282 44.1183 52.371 43.1938L51.3959 41.5728C50.9653 40.8636 50.75 40.0531 50.75 39.2553C50.75 38.4574 50.9653 37.6596 51.3959 36.9377L51.8265 36.2285H53.6628L52.7509 37.7482C52.1937 38.6727 52.1937 39.8378 52.7509 40.7623L53.7261 42.3833C54.5873 43.8144 54.5873 45.5873 53.7261 47.0184L52.7509 48.6394C52.1937 49.5639 52.1937 50.729 52.7509 51.6535L53.7261 53.2745Z" fill="#212982"/>
<path d="M58.5855 53.2745C59.4466 54.7055 59.4466 56.4785 58.5855 57.9096L57.6103 59.5306C57.0531 60.4551 57.0531 61.6202 57.6103 62.5447L58.5221 64.0644H56.6858L56.2553 63.3552C55.8247 62.646 55.6094 61.8355 55.6094 61.0376C55.6094 60.2398 55.8247 59.4419 56.2553 58.7201L57.2304 57.0991C57.7876 56.1746 57.7876 55.0095 57.2304 54.085L56.2553 52.464C55.8247 51.7548 55.6094 50.9443 55.6094 50.1464C55.6094 49.3486 55.8247 48.5508 56.2553 47.8289L57.2304 46.2079C57.7876 45.2834 57.7876 44.1183 57.2304 43.1938L56.2553 41.5728C55.8247 40.8636 55.6094 40.0531 55.6094 39.2553C55.6094 38.4574 55.8247 37.6596 56.2553 36.9377L56.6858 36.2285H58.5221L57.6103 37.7482C57.0531 38.6727 57.0531 39.8378 57.6103 40.7623L58.5855 42.3833C59.4466 43.8144 59.4466 45.5873 58.5855 47.0184L57.6103 48.6394C57.0531 49.5639 57.0531 50.729 57.6103 51.6535L58.5855 53.2745Z" fill="#212982"/>
<path d="M63.4292 53.2745C64.2904 54.7055 64.2904 56.4785 63.4292 57.9096L62.4541 59.5306C61.8968 60.4551 61.8968 61.6202 62.4541 62.5447L63.3659 64.0644H61.5296L61.099 63.3552C60.6684 62.646 60.4531 61.8355 60.4531 61.0376C60.4531 60.2398 60.6684 59.4419 61.099 58.7201L62.0741 57.0991C62.6314 56.1746 62.6314 55.0095 62.0741 54.085L61.099 52.464C60.6684 51.7548 60.4531 50.9443 60.4531 50.1464C60.4531 49.3486 60.6684 48.5508 61.099 47.8289L62.0741 46.2079C62.6314 45.2834 62.6314 44.1183 62.0741 43.1938L61.099 41.5728C60.6684 40.8636 60.4531 40.0531 60.4531 39.2553C60.4531 38.4574 60.6684 37.6596 61.099 36.9377L61.5296 36.2285H63.3659L62.4541 37.7482C61.8968 38.6727 61.8968 39.8378 62.4541 40.7623L63.4292 42.3833C64.2904 43.8144 64.2904 45.5873 63.4292 47.0184L62.4541 48.6394C61.8968 49.5639 61.8968 50.729 62.4541 51.6535L63.4292 53.2745Z" fill="#212982"/>
<path d="M33.8101 39.8875V41.5591C31.2772 40.7486 29.2763 38.735 28.4531 36.2148H30.1248C30.8087 37.8738 32.1384 39.2036 33.8101 39.8875Z" fill="#4885D0"/>
<path d="M11.3169 36.2148C10.4938 38.7477 8.49283 40.7486 5.97266 41.5591V39.8875C7.63166 39.2036 8.96139 37.8738 9.64526 36.2148H11.3169Z" fill="#4885D0"/>
<path d="M29.3517 47.7013C28.7564 47.3973 28.1865 47.068 27.6293 46.7008C25.9323 45.561 24.4633 44.092 23.3235 42.395C22.9562 41.8504 22.6143 41.2679 22.323 40.6726C21.6265 39.2922 21.1326 37.7852 20.8793 36.2148H18.891C18.6378 37.7979 18.1312 39.2922 17.4473 40.6726C17.1434 41.2679 16.8141 41.8377 16.4469 42.395C15.3071 44.092 13.838 45.561 12.141 46.7008C11.5965 47.068 11.0139 47.41 10.4187 47.7013C9.03832 48.3978 7.53129 48.8917 5.96094 49.145V51.1332C7.54396 51.3865 9.03832 51.8804 10.4187 52.5769C11.0139 52.8809 11.5838 53.2102 12.141 53.5774C13.838 54.7172 15.3071 56.1862 16.4469 57.8832C16.8141 58.4278 17.156 59.0103 17.4473 59.6056C18.1439 60.986 18.6378 62.493 18.891 64.0634H20.8793C21.1326 62.493 21.6265 60.986 22.323 59.6056C22.627 59.0103 22.9562 58.4405 23.3235 57.8832C24.4633 56.1862 25.9323 54.7172 27.6293 53.5774C28.1739 53.2102 28.7564 52.8682 29.3517 52.5769C30.732 51.8804 32.2391 51.3865 33.8094 51.1332V49.145C32.2391 48.8917 30.732 48.3978 29.3517 47.7013ZM27.5153 51.7918C26.9961 52.0957 26.5022 52.4376 26.021 52.7922C24.7039 53.78 23.5261 54.9578 22.5383 56.2749C22.1837 56.7561 21.8418 57.25 21.5379 57.7693C20.854 58.9217 20.2968 60.1501 19.8915 61.4545C19.4863 60.1501 18.929 58.9217 18.2452 57.7693C17.9412 57.25 17.5993 56.7561 17.2447 56.2749C16.2569 54.9578 15.0791 53.78 13.762 52.7922C13.2808 52.4376 12.7869 52.0957 12.2677 51.7918C11.1152 51.1079 9.88682 50.5507 8.58241 50.1454C9.88682 49.7402 11.1152 49.1829 12.2677 48.4991C12.7869 48.1951 13.2808 47.8532 13.762 47.4986C15.0791 46.5108 16.2569 45.333 17.2447 44.016C17.5993 43.5347 17.9412 43.0408 18.2452 42.5216C18.929 41.3692 19.4863 40.1407 19.9042 38.8363C20.3094 40.1407 20.8667 41.3692 21.5505 42.5216C21.8545 43.0408 22.1964 43.5347 22.551 44.016C23.5388 45.333 24.7166 46.5108 26.0336 47.4986C26.5149 47.8532 27.0088 48.1951 27.528 48.4991C28.6804 49.1829 29.9089 49.7402 31.2133 50.1454C29.9089 50.5507 28.6804 51.1079 27.528 51.7918H27.5153Z" fill="#4885D0"/>
<path d="M33.8101 58.707V60.3787C32.1384 61.0626 30.8087 62.3923 30.1248 64.064H28.4531C29.2763 61.5312 31.2772 59.5175 33.8101 58.707Z" fill="#4885D0"/>
<path d="M11.315 64.064H9.6433C8.95944 62.405 7.62971 61.0626 5.9707 60.3787V58.707C8.50354 59.5302 10.5045 61.5312 11.315 64.064Z" fill="#4885D0"/>
<path d="M15.9374 64.0634H14.3291C13.3666 59.9222 10.0992 56.6548 5.9707 55.6923V54.084C6.80654 54.2486 7.61705 54.5019 8.38956 54.8312C11.4416 56.1229 13.8985 58.5798 15.1902 61.6445C15.5195 62.417 15.7728 63.2275 15.9374 64.0634Z" fill="#4885D0"/>
<path d="M33.8036 44.5732V46.1815C32.9677 46.0169 32.1572 45.7636 31.3847 45.4344C28.32 44.1426 25.8631 41.6858 24.5714 38.6337C24.2421 37.8612 23.9889 37.0507 23.8242 36.2148H25.4326C26.395 40.356 29.6624 43.6107 33.8036 44.5732Z" fill="#4885D0"/>
<path d="M33.8036 54.084V55.6923C29.6624 56.6548 26.395 59.9222 25.4326 64.0634H23.8242C23.9889 63.2275 24.2421 62.4043 24.5714 61.6318C25.8631 58.5798 28.32 56.1229 31.3721 54.8312C32.1446 54.5019 32.9551 54.2486 33.8036 54.084Z" fill="#4885D0"/>
<path d="M15.9374 36.2148C15.7728 37.0507 15.5195 37.8612 15.1902 38.6337C13.8985 41.6984 11.4416 44.1426 8.37689 45.447C7.60437 45.7763 6.80654 46.0296 5.9707 46.1942V44.5859C10.0992 43.6234 13.3666 40.356 14.3291 36.2275H15.9374V36.2148Z" fill="#4885D0"/>
<path d="M23.4335 49.1331C22.509 48.3606 21.6605 47.5121 20.8879 46.5876C20.5334 46.1697 20.2041 45.7391 19.8875 45.2832C19.5709 45.7264 19.2416 46.1697 18.887 46.5876C18.1145 47.5121 17.266 48.3606 16.3415 49.1331C15.9236 49.4877 15.493 49.817 15.0371 50.1336C15.4804 50.4502 15.9236 50.7794 16.3415 51.134C17.266 51.9066 18.1145 52.7551 18.887 53.6796C19.2416 54.0975 19.5709 54.528 19.8875 54.984C20.2041 54.5407 20.5334 54.0975 20.8879 53.6796C21.6605 52.7551 22.509 51.9066 23.4335 51.134C23.8514 50.7794 24.282 50.4502 24.7379 50.1336C24.2946 49.817 23.8514 49.4877 23.4335 49.1331ZM19.8875 52.4258C19.1783 51.6026 18.4058 50.8301 17.5953 50.1336C18.4184 49.4244 19.1783 48.6645 19.8875 47.8414C20.5967 48.6645 21.3692 49.4371 22.1797 50.1336C21.3565 50.8428 20.584 51.6026 19.8875 52.4258Z" fill="#4885D0"/>
</g>
</svg>
