<svg width="70" height="70" viewBox="0 0 70 70" fill="none" xmlns="http://www.w3.org/2000/svg">
<circle cx="35" cy="35" r="35" fill="#AF390B"/>
<path d="M35.5586 36.9533L36.953 35.5571L44.3018 42.9057L52.2091 35.0005L44.3018 27.0915L41.603 29.7903L40.2085 28.3941L44.3018 24.3027L54.9998 35.0005L44.3018 45.6982L40.2085 41.605L39.6519 41.0465L35.5586 36.9533Z" fill="white"/>
<path d="M30.9062 37.6983L33.0447 35.558L33.6051 35.0014L34.9995 33.6051L35.558 33.0466L37.6965 30.9082L39.091 32.3026L36.9525 34.441L36.394 35.0014L34.9995 36.3958L34.441 36.9543L32.3007 39.0927L30.9062 37.6983Z" fill="white"/>
<path d="M15 35.0005L25.6962 24.3027L34.4412 33.0457L33.045 34.4401L30.9065 32.3017L30.348 31.7432L28.9535 30.3488L28.395 29.7903L25.6962 27.0915L17.7907 35.0005L25.6962 42.9057L28.395 40.2088L29.7895 41.6032L25.6962 45.6982L15 35.0005Z" fill="white"/>
<path d="M28.9531 21.0461L34.9993 15L41.0456 21.0461L36.9523 25.1411L36.3938 25.6977L34.9993 27.0921L32.3005 29.7909L30.9061 28.3947L33.0446 26.2562L33.6049 25.6977L34.9993 24.3033L35.556 23.7448L38.2549 21.0461L34.9993 17.7906L31.742 21.0461L34.4408 23.7448L33.0446 25.1392L28.9531 21.0461Z" fill="white"/>
<path d="M35.5527 27.6503L36.949 26.2559L39.0875 28.3943L39.6479 28.9546L41.0423 30.349L45.6941 35.0007L41.6008 39.092L40.2045 37.6976L42.9034 35.0007L35.5527 27.6503Z" fill="white"/>
<path d="M24.3027 35.0014L28.396 30.9082L29.7905 32.3026L27.0934 35.0014L30.349 38.2568L31.7434 39.6512L34.4422 42.35L33.046 43.7444L30.9075 41.6059L30.349 41.0474L28.9545 39.6512L28.396 39.0927L24.3027 35.0014Z" fill="white"/>
<path d="M28.9531 48.952L35.556 42.3493L37.6964 40.209L39.0908 41.6034L36.9523 43.7437L36.3938 44.3022L34.4408 46.255L31.742 48.952L34.9993 52.2074L38.2549 48.952L35.556 46.255L36.9523 44.8588L41.0456 48.952L34.9993 54.9999L28.9531 48.952Z" fill="white"/>
</svg>
