<svg width="70" height="70" viewBox="0 0 70 70" fill="none" xmlns="http://www.w3.org/2000/svg">
<circle cx="35" cy="35" r="35" fill="#FAB219"/>
<path d="M12.8439 34.3821C13.387 31.5726 11.5683 28.8502 8.78144 28.3027C8.23837 31.1122 10.057 33.8346 12.8439 34.3821Z" fill="white"/>
<path d="M18.6191 38.7073C19.1264 41.5231 21.8018 43.3925 24.5971 42.8812C24.0898 40.0653 21.4145 38.1959 18.6191 38.7073Z" fill="white"/>
<path d="M16.5293 51.5837C19.1204 52.7546 22.162 51.5901 23.326 48.9788C20.7349 47.8079 17.6933 48.9725 16.5293 51.5837Z" fill="white"/>
<path d="M43.8328 52.6172C43.7844 55.4797 46.0493 57.8393 48.8867 57.886C48.9351 55.0235 46.6702 52.6639 43.8328 52.6172Z" fill="white"/>
<path d="M7.91406 40.9827C8.74971 43.7169 11.6271 45.2527 14.3403 44.4106C13.5047 41.6763 10.6273 40.1405 7.91406 40.9827Z" fill="white"/>
<path d="M22.7623 30.618C23.2864 27.8043 21.4467 25.0967 18.6556 24.5684C18.1315 27.3821 19.9712 30.0897 22.7623 30.618Z" fill="white"/>
<path d="M15.1875 15.7227C15.1096 18.5852 17.3472 20.9681 20.1867 21.0466C20.2645 18.1841 18.027 15.8012 15.1875 15.7227Z" fill="white"/>
<path d="M56.2266 42.1644C58.8093 43.3565 61.8593 42.2111 63.0422 39.6104C60.4595 38.4183 57.4095 39.5638 56.2266 42.1644Z" fill="white"/>
<path d="M49.1076 36.3084C51.9471 36.285 54.2288 33.9445 54.2057 31.082C51.3662 31.1054 49.0844 33.4459 49.1076 36.3084Z" fill="white"/>
<path d="M58.2773 33.1904C60.8747 32.0318 62.0472 28.9699 60.8979 26.3535C58.3004 27.5121 57.128 30.5741 58.2773 33.1904Z" fill="white"/>
<path d="M38.9201 36.8617C41.6144 35.9556 43.0689 33.0188 42.1701 30.3027C39.4758 31.2088 38.0213 34.1456 38.9201 36.8617Z" fill="white"/>
<path d="M57.1002 17.3691C54.4606 18.4237 53.1661 21.4348 54.2123 24.0978C56.8518 23.0432 58.1463 20.0322 57.1002 17.3691Z" fill="white"/>
<path d="M42.68 23.5302C45.4501 22.9 47.1887 20.1245 46.5635 17.332C43.7935 17.9622 42.0548 20.7378 42.68 23.5302Z" fill="white"/>
<path d="M36.8707 6C34.3637 7.34319 33.4102 10.4815 34.7426 13.0088C37.2496 11.6656 38.2031 8.52723 36.8707 6Z" fill="white"/>
<path d="M31.2888 24.0527C29.8196 26.5036 30.6005 29.6886 33.0296 31.1697C34.4988 28.7189 33.7179 25.5339 31.2888 24.0527Z" fill="white"/>
<path d="M26.4307 12.5078C25.233 15.1029 26.3465 18.1861 28.9208 19.3956C30.1185 16.8005 29.005 13.7173 26.4307 12.5078Z" fill="white"/>
<path d="M43.0352 47.3087C45.8052 47.9429 48.5584 46.1929 49.1878 43.4014C46.4177 42.7671 43.6645 44.5171 43.0352 47.3087Z" fill="white"/>
<path d="M50.7812 51.4456C53.2587 52.8456 56.3929 51.9568 57.7801 49.4601C55.3026 48.0601 52.1684 48.9489 50.7812 51.4456Z" fill="white"/>
<path d="M39.7589 11.4894C39.2663 11.8014 38.7506 12.0793 38.2054 12.3743C36.9614 13.0469 35.6227 13.7748 34.5324 14.9694C33.6862 13.3377 32.0023 12.0539 30.4404 10.8677C28.3608 9.28899 26.9547 8.13465 26.7379 6.7469C26.0538 6.95273 25.3803 7.18826 24.7172 7.44502C25.2771 9.63486 27.4178 11.2624 29.1607 12.5844C31.815 14.5981 33.3915 15.9774 32.8295 17.9868C32.8148 18.0356 32.7979 18.0866 32.7832 18.1375C32.3096 19.574 31.1288 20.1809 29.7585 20.8769C28.8933 21.3162 27.9377 21.8021 27.1989 22.5575C25.7718 18.0547 23.1933 14.3519 20.0422 12.4634C19.2592 11.9945 18.4446 11.6486 17.609 11.4024C16.8807 11.9541 16.1755 12.5398 15.502 13.1573C16.7017 13.2698 17.8552 13.6517 18.9561 14.3116C22.4271 16.389 25.1214 21.1294 25.9907 26.6847C25.9907 26.6889 25.9928 26.691 25.9949 26.6953C26.0181 26.899 26.0454 27.1048 26.0854 27.3234C26.9358 31.8983 29.148 33.4303 31.2866 34.9136L31.5476 35.0961C35.0439 37.5278 35.0102 39.6773 33.6462 43.291L33.5641 43.5096C32.3706 46.6628 29.0954 55.367 32.0002 63.8505C32.7811 63.9333 33.5578 63.9821 34.3282 64.0012C31.1203 56.046 34.2735 47.6558 35.5533 44.2756L35.6375 44.0549C36.3026 42.2916 36.873 40.3818 36.5194 38.4551C36.5236 38.3745 36.5194 38.2917 36.5026 38.2068C35.9048 35.0833 36.3615 32.2569 37.7824 30.2517C38.8916 28.6899 40.544 27.7138 42.5626 27.4295C44.5117 27.1557 53.3018 25.2715 55.072 13.6878C54.4469 13.0809 53.7922 12.5037 53.1145 11.9563C52.0304 23.2853 44.0002 25.0593 42.2679 25.3033C42.0595 25.333 41.8617 25.3776 41.6596 25.4179C41.6596 25.4179 41.6575 25.4179 41.6554 25.4158C40.1546 24.497 39.3484 23.5654 39.2579 22.6487C39.1569 21.6323 39.8957 20.408 41.5143 18.9078C42.1753 18.2966 42.9141 17.728 43.6971 17.1274C46.1136 15.275 48.9447 13.083 49.0478 9.19774C48.3426 8.80306 47.6186 8.43597 46.8776 8.09858C47.3512 11.6104 45.1095 13.3461 42.4089 15.4172C41.6217 16.0219 40.8071 16.6458 40.0725 17.3248C38.7043 18.5937 36.9109 20.548 37.1383 22.8588C37.2603 24.0895 37.9486 25.2354 39.1884 26.2773C37.9486 26.9202 36.8836 27.8305 36.0521 29.0018C34.9723 30.5212 34.3387 32.3885 34.1682 34.4531C33.7599 34.0733 33.2947 33.6977 32.7601 33.3242L32.4948 33.1396C30.4699 31.737 28.8681 30.6273 28.1798 26.9245C27.6978 24.3272 28.8344 23.75 30.7183 22.7909C32.1875 22.0461 33.9998 21.1188 34.7702 18.9184C34.7702 18.9141 34.7744 18.9078 34.7766 18.9035C34.7766 18.9014 34.7766 18.8971 34.7787 18.895C34.8018 18.8314 34.825 18.7698 34.846 18.7019C34.8586 18.6616 34.8629 18.6255 34.8755 18.5852C35.648 16.198 37.3066 15.2962 39.2158 14.2649C39.7694 13.9657 40.3419 13.6559 40.8955 13.3058C42.4679 12.3085 43.8824 10.3882 43.1267 6.70658C42.3584 6.47953 41.5754 6.28644 40.7776 6.12305C41.4301 8.28106 41.4659 10.4094 39.7631 11.4873L39.7589 11.4894Z" fill="#221F1C"/>
<path d="M29.0171 48.7161C30.9242 41.1302 28.2846 35.0678 21.9573 32.496C16.6213 30.3295 15.691 27.7174 14.7901 25.1923C14.047 23.1043 13.2809 20.9653 10.153 19.707C9.78672 20.3203 9.4352 20.942 9.11315 21.585C11.5527 22.4571 12.079 23.9361 12.7862 25.9201C13.6513 28.3497 14.7206 31.3119 19.4903 33.7246C18.1158 34.0896 16.8234 34.7219 15.712 35.2672C14.527 35.8465 13.4093 36.3961 12.5357 36.5128C11.4601 36.6571 10.2708 36.1903 9.01212 35.6938C8.09227 35.3309 7.06929 34.9405 6 34.7898C6 35.5219 6.02736 36.2497 6.07999 36.9712C6.71567 37.1112 7.4187 37.3722 8.23541 37.6947C9.68779 38.2677 11.1907 38.8597 12.8136 38.6433C14.0281 38.4799 15.2974 37.8581 16.6403 37.2003C20.3028 35.4052 23.4728 33.8562 26.4681 39.3647C28.032 42.7832 27.3353 46.6493 26.948 48.192C25.6872 53.2062 22.4667 57.5179 19.1199 59.2325C19.8082 59.6887 20.5175 60.1152 21.2479 60.512C24.902 58.0951 27.8405 53.3865 29.0129 48.7182L29.0171 48.7161Z" fill="#221F1C"/>
<path d="M54.9423 42.2973C53.9824 41.3382 52.9658 40.3239 51.7849 39.6024C51.9196 39.577 52.048 39.5473 52.1827 39.5239C55.3254 38.9807 60.4992 37.6884 64.0018 34.7686C64.0018 33.7925 63.9555 32.8271 63.8607 31.8701C61.7011 34.4419 57.3987 36.445 51.8228 37.4062C50.0694 37.7097 48.4697 38.1468 47.011 38.6942C46.9836 38.6412 46.9542 38.5881 46.9184 38.5393C46.4006 37.8476 45.8512 36.7251 46.1838 35.3012C46.5332 33.8074 47.9814 31.5136 52.8984 29.0542C57.3587 26.8241 59.9919 24.7828 61.2086 22.2704C60.7813 21.3664 60.3098 20.4858 59.7962 19.6328C59.3289 22.5972 57.0114 24.6003 51.9512 27.1296C47.4088 29.4001 44.7714 31.9825 44.1104 34.8068C43.7273 36.4429 44.0599 38.1107 45.0261 39.5494C40.7131 41.718 38.1304 45.111 37.7179 49.3634C37.2527 54.1377 39.7365 59.2495 43.7694 62.6298C44.5693 62.373 45.3544 62.0844 46.1248 61.7598C42.0266 58.8782 39.4039 54.0444 39.8375 49.5734C40.208 45.773 42.6602 42.849 46.8616 41.0453C49.5495 40.1223 51.1177 41.5016 53.4394 43.8208C55.1612 45.5396 57.1482 47.5236 60.0467 47.861C60.3266 47.8929 60.6171 47.9035 60.916 47.9035C61.278 47.1799 61.6043 46.4372 61.9053 45.6775C58.8237 46.1656 56.9861 44.3365 54.9381 42.293L54.9423 42.2973Z" fill="#221F1C"/>
</svg>
