<svg xmlns="http://www.w3.org/2000/svg" width="22" height="19" fill="none"><path fill="#fff" fill-rule="evenodd" d="M13.326 3.33c-1.97.815-5.908 2.5-11.814 5.057-.959.38-1.46.75-1.507 1.113-.077.612.695.854 1.746 1.182.143.045.292.091.443.14 1.035.334 2.426.725 3.15.74.656.015 1.388-.254 2.196-.806 5.518-3.701 8.366-5.572 8.545-5.612.126-.029.301-.064.42.04.118.105.107.303.094.356-.077.324-3.107 3.124-4.675 4.573-.49.452-.836.772-.907.845-.159.164-.32.319-.476.468-.961.92-1.682 1.61.04 2.738.827.542 1.489.99 2.15 1.437.72.488 1.44.975 2.37 1.58.238.155.464.316.685.472.839.595 1.593 1.129 2.525 1.044.541-.05 1.1-.556 1.384-2.064.671-3.565 1.99-11.29 2.295-14.473a3.528 3.528 0 0 0-.034-.793c-.027-.156-.083-.38-.288-.545-.243-.196-.617-.237-.785-.234-.762.014-1.93.417-7.557 2.743Z" clip-rule="evenodd"/></svg>