<svg xmlns="http://www.w3.org/2000/svg" width="22" height="22" fill="none"><path fill="#fff" fill-rule="evenodd" d="M0 10.56c0-4.98 0-7.465 1.54-9.02C3.102 0 5.588 0 10.56 0h.88c4.98 0 7.465 0 9.02 1.54C22 3.102 22 5.588 22 10.56v.88c0 4.98 0 7.465-1.54 9.02C18.898 22 16.412 22 11.44 22h-.88c-4.98 0-7.465 0-9.02-1.54C0 18.898 0 16.412 0 11.44v-.88Zm3.71-3.865c.118 5.72 2.978 9.152 7.994 9.152h.293v-3.27c1.841.183 3.234 1.532 3.792 3.27h2.603a7.239 7.239 0 0 0-3.762-4.59 6.988 6.988 0 0 0 3.212-4.569h-2.361c-.514 1.819-2.039 3.469-3.484 3.623V6.695H9.63v6.336c-1.467-.366-3.315-2.141-3.396-6.336H3.711Z" clip-rule="evenodd"/></svg>