<svg xmlns="http://www.w3.org/2000/svg" width="22" height="22" fill="none"><path fill="#fff" fill-rule="evenodd" d="M18.7 3.163C16.637 1.1 13.887 0 11 0 4.95 0 0 4.95 0 11c0 1.925.55 3.85 1.513 5.5L0 22l5.775-1.512c1.65.825 3.438 1.375 5.225 1.375 6.05 0 11-4.95 11-11 0-2.888-1.238-5.638-3.3-7.7ZM6.325 18.837C7.7 19.663 9.35 20.075 11 20.075c5.087 0 9.075-4.125 9.075-8.938 0-2.475-.825-4.675-2.613-6.462-1.787-1.65-3.987-2.612-6.462-2.612-4.95 0-9.075 4.124-9.075 9.074 0 1.65.412 3.3 1.375 4.813l.275.413-.963 3.3L6.05 18.7l.275.137ZM15.95 13.2c-.275-.137-1.65-.825-1.925-.825-.275-.137-.412-.137-.55.137-.069.138-.24.344-.412.55-.172.207-.344.413-.413.55-.138.138-.275.138-.55.138a4.045 4.045 0 0 0-.168-.076c-.371-.164-1.104-.487-2.032-1.299-.825-.688-1.375-1.65-1.512-1.925-.138-.275 0-.412.137-.55l.412-.412c.07-.07.104-.138.138-.207.034-.069.069-.137.138-.206.091-.092.06-.183.03-.275-.015-.046-.03-.092-.03-.138 0-.137-.55-1.512-.825-2.062-.138-.412-.413-.412-.55-.412h-.55c-.138 0-.413 0-.688.275-.275.274-.962.962-.962 2.337 0 1.14.662 2.187.966 2.667.063.099.11.174.133.22.018.018.06.077.126.17.47.655 2.14 2.992 4.55 3.956 1.941.799 2.554.745 3.022.703.095-.008.184-.016.277-.016.55 0 1.65-.688 1.788-1.238.275-.687.275-1.237.137-1.237-.116-.58-.33-.67-.56-.768a2.154 2.154 0 0 1-.127-.057Z" clip-rule="evenodd"/></svg>