<svg width="287" height="235" viewBox="0 0 287 235" fill="none" xmlns="http://www.w3.org/2000/svg">
<mask id="mask0_1335_3578" style="mask-type:alpha" maskUnits="userSpaceOnUse" x="0" y="0" width="287" height="235">
<rect width="287" height="235" fill="#D9D9D9"/>
</mask>
<g mask="url(#mask0_1335_3578)">
<g filter="url(#filter0_df_1335_3578)">
<circle cx="55.8099" cy="55.8099" r="55.8099" transform="matrix(-0.418434 -0.908247 -0.908247 0.418434 310.083 90.3789)" fill="#09C4C3" fill-opacity="0.05" shape-rendering="crispEdges"/>
</g>
<path d="M230.437 185.197L313.99 146.816L276.298 74.1712M230.437 185.197L276.298 74.1712M230.437 185.197L223.085 119.884L184.532 62.5064M276.298 74.1712L234.741 68.8886M184.532 62.5064L178.369 118.085L128.509 88.8039M184.532 62.5064L128.509 88.8039M184.532 62.5064L135.312 -22.1269M184.532 62.5064L234.741 68.8886M128.509 88.8039L97.8537 24.477M128.509 88.8039L135.312 -22.1269M97.8537 24.477L135.312 -22.1269M97.8537 24.477L46.3225 54.4457L59.1344 -54.7959M135.312 -22.1269L238.693 17.3419M135.312 -22.1269L234.741 68.8886M135.312 -22.1269L59.1344 -54.7959M135.312 -22.1269L172.993 -37.2861M135.312 -22.1269L163.028 -82.3625M135.312 -22.1269L117.641 -61.0302M238.693 17.3419L234.741 68.8886M238.693 17.3419L172.993 -37.2861M59.1344 -54.7959L117.641 -61.0302M172.993 -37.2861L163.028 -82.3625M163.028 -82.3625L117.641 -61.0302" stroke="#3BB8BC" stroke-width="2.2414" stroke-linecap="round" stroke-linejoin="round"/>
<path d="M240.878 56.9424L195.682 138.05M240.878 56.9424L241.831 98.0158M240.878 56.9424L205.201 49.8871L204.489 78.1049M195.682 138.05L186.598 44.3692M195.682 138.05L149.153 66.1461M195.682 138.05L241.831 98.0158M195.682 138.05L204.489 78.1049M186.598 44.3692L149.153 66.1461M186.598 44.3692L88.8243 66.6724M186.598 44.3692L204.489 78.1049M186.598 44.3692L165.758 -29.2792M186.598 44.3692L158.699 16.9249M186.598 44.3692L114.866 20.4249M149.153 66.1461L88.8243 66.6724M241.831 98.0158L280.445 138.854L252.642 167.034L241.831 98.0158ZM88.8243 66.6724L114.866 20.4249M88.8243 66.6724L34.3686 22.8185M88.8243 66.6724L71.0151 17.491L95.6717 -18.2503M95.6717 -18.2503L158.699 16.9249M95.6717 -18.2503L165.758 -29.2792M95.6717 -18.2503L114.866 20.4249M95.6717 -18.2503L34.3686 22.8185M95.6717 -18.2503L68.3543 -51.0198M165.758 -29.2792L158.699 16.9249M165.758 -29.2792L68.3543 -51.0198M34.3686 22.8185L68.3543 -51.0198" stroke="#3BB8BC" stroke-opacity="0.3" stroke-width="1.49426" stroke-linecap="round" stroke-linejoin="round"/>
</g>
<defs>
<filter id="filter0_df_1335_3578" x="12.5483" y="-160.451" width="446.985" height="446.985" filterUnits="userSpaceOnUse" color-interpolation-filters="sRGB">
<feFlood flood-opacity="0" result="BackgroundImageFix"/>
<feColorMatrix in="SourceAlpha" type="matrix" values="0 0 0 0 0 0 0 0 0 0 0 0 0 0 0 0 0 0 127 0" result="hardAlpha"/>
<feOffset/>
<feGaussianBlur stdDeviation="83.8347"/>
<feComposite in2="hardAlpha" operator="out"/>
<feColorMatrix type="matrix" values="0 0 0 0 0.0352941 0 0 0 0 0.768627 0 0 0 0 0.764706 0 0 0 1 0"/>
<feBlend mode="normal" in2="BackgroundImageFix" result="effect1_dropShadow_1335_3578"/>
<feBlend mode="normal" in="SourceGraphic" in2="effect1_dropShadow_1335_3578" result="shape"/>
<feGaussianBlur stdDeviation="70.25" result="effect2_foregroundBlur_1335_3578"/>
</filter>
</defs>
</svg>
