<svg width="1012" height="633" viewBox="0 0 1012 633" fill="none" xmlns="http://www.w3.org/2000/svg">
<mask id="mask0_1335_810" style="mask-type:alpha" maskUnits="userSpaceOnUse" x="0" y="0" width="1012" height="633">
<rect width="1012" height="633" fill="#D9D9D9"/>
</mask>
<g mask="url(#mask0_1335_810)">
<path d="M136.899 327.422L59.4757 29.1434L327.969 -26.9502M136.899 327.422L327.969 -26.9502M136.899 327.422L322.057 208.093L552.737 186.589M327.969 -26.9502L429.759 69.7542M552.737 186.589L421.494 320.379L603.189 387.777M552.737 186.589L603.189 387.777M552.737 186.589L876.789 135.017M552.737 186.589L429.759 69.7542M603.189 387.777L835.174 331.042M603.189 387.777L876.789 135.017M835.174 331.042L876.789 135.017M835.174 331.042L866.575 528.35L1123.05 263.568M876.789 135.017L555.217 -49.7515M876.789 135.017L429.759 69.7542M876.789 135.017L1123.05 263.568M876.789 135.017L836.291 5.05651M876.789 135.017L974.446 -64.6007M876.789 135.017L1015.25 98.4495M555.217 -49.7515L429.759 69.7542M555.217 -49.7515L836.291 5.05651M1123.05 263.568L1015.25 98.4495M836.291 5.05651L974.446 -64.6007M974.446 -64.6007L1015.25 98.4495" stroke="#3BB8BC" stroke-width="3.34199" stroke-linecap="round" stroke-linejoin="round"/>
<path d="M447.769 28.5011L332.97 317.74M447.769 28.5011L339.109 113.075M447.769 28.5011L541.699 106.18L469.943 167.83M332.97 317.74L595.451 142.787M332.97 317.74L618.268 286.161M332.97 317.74L339.109 113.075M332.97 317.74L469.943 167.83M595.451 142.787L618.268 286.161M595.451 142.787L744.757 443.912M595.451 142.787L469.943 167.83M595.451 142.787L830.836 40.8101M595.451 142.787L725.834 157.06M595.451 142.787L809.643 278.285M618.268 286.161L744.757 443.912M339.109 113.075L151.241 99.3683L136.999 231.278L339.109 113.075ZM744.757 443.912L809.643 278.285M744.757 443.912L974.027 492.359M744.757 443.912L910.193 385.92L950.736 246.155M950.736 246.155L725.834 157.06M950.736 246.155L830.836 40.8101M950.736 246.155L809.643 278.285M950.736 246.155L974.027 492.359M950.736 246.155L1093.71 247.633M830.836 40.8101L725.834 157.06M830.836 40.8101L1093.71 247.633M974.027 492.359L1093.71 247.633" stroke="#3BB8BC" stroke-opacity="0.3" stroke-width="2.22799" stroke-linecap="round" stroke-linejoin="round"/>
<g filter="url(#filter0_df_1335_810)">
<circle cx="721.274" cy="37.4196" r="187.048" transform="rotate(-14.4876 721.274 37.4196)" fill="#09C4C3" fill-opacity="0.05" shape-rendering="crispEdges"/>
</g>
</g>
<defs>
<filter id="filter0_df_1335_810" x="34.1807" y="-649.674" width="1374.19" height="1374.19" filterUnits="userSpaceOnUse" color-interpolation-filters="sRGB">
<feFlood flood-opacity="0" result="BackgroundImageFix"/>
<feColorMatrix in="SourceAlpha" type="matrix" values="0 0 0 0 0 0 0 0 0 0 0 0 0 0 0 0 0 0 127 0" result="hardAlpha"/>
<feOffset/>
<feGaussianBlur stdDeviation="125"/>
<feComposite in2="hardAlpha" operator="out"/>
<feColorMatrix type="matrix" values="0 0 0 0 0.0352941 0 0 0 0 0.768627 0 0 0 0 0.764706 0 0 0 1 0"/>
<feBlend mode="normal" in2="BackgroundImageFix" result="effect1_dropShadow_1335_810"/>
<feBlend mode="normal" in="SourceGraphic" in2="effect1_dropShadow_1335_810" result="shape"/>
<feGaussianBlur stdDeviation="250" result="effect2_foregroundBlur_1335_810"/>
</filter>
</defs>
</svg>
