<svg width="552" height="508" viewBox="0 0 552 508" fill="none" xmlns="http://www.w3.org/2000/svg">
<mask id="mask0_1335_2271" style="mask-type:alpha" maskUnits="userSpaceOnUse" x="0" y="0" width="552" height="508">
<rect width="552" height="508" fill="#D9D9D9"/>
</mask>
<g mask="url(#mask0_1335_2271)">
<g filter="url(#filter0_df_1335_2271)">
<circle cx="169.471" cy="169.471" r="169.471" transform="matrix(-0.339481 -0.940613 -0.940613 0.339481 701.877 53.8105)" fill="#09C4C3" fill-opacity="0.05" shape-rendering="crispEdges"/>
</g>
<path d="M359.493 387.526L622.222 293.032L526.989 63.4882M359.493 387.526L526.989 63.4882M359.493 387.526L354.157 188.018L252.368 4.44058M526.989 63.4882L402.623 36.7476M252.368 4.44058L219.335 171L76.0635 69.5012M252.368 4.44058L76.0635 69.5012M252.368 4.44058L125.362 -264.36M252.368 4.44058L402.623 36.7476M76.0635 69.5012L-0.0331926 -133.057M76.0635 69.5012L125.362 -264.36M-0.0331926 -133.057L125.362 -264.36M-0.0331926 -133.057L-163.7 -55.7256L-96.6577 -382.921M125.362 -264.36L427.925 -118.185M125.362 -264.36L402.623 36.7476M125.362 -264.36L-96.6577 -382.921M125.362 -264.36L243.291 -300.47M125.362 -264.36L224.81 -439.429M125.362 -264.36L81.9698 -386.637M427.925 -118.185L402.623 36.7476M427.925 -118.185L243.291 -300.47M-96.6577 -382.921L81.9698 -386.637M243.291 -300.47L224.81 -439.429M224.81 -439.429L81.9698 -386.637" stroke="#3BB8BC" stroke-width="3.02793" stroke-linecap="round" stroke-linejoin="round"/>
<path d="M424.284 2.19287L266.545 235.884M424.284 2.19287L416.533 126.708M424.284 2.19287L318.168 -28.389L308.71 56.8002M266.545 235.884L263.312 -49.8991M266.545 235.884L144.384 6.2936M266.545 235.884L416.533 126.708M266.545 235.884L308.71 56.8002M263.312 -49.8991L144.384 6.2936M263.312 -49.8991L-38.2768 -7.73119M263.312 -49.8991L308.71 56.8002M263.312 -49.8991L219.328 -278.118M263.312 -49.8991L186.008 -140.155M263.312 -49.8991L52.4842 -140.912M144.384 6.2936L-38.2768 -7.73119M416.533 126.708L522.788 260.261L431.374 338.323L416.533 126.708ZM-38.2768 -7.73119L52.4842 -140.912M-38.2768 -7.73119L-191.681 -154.509M-38.2768 -7.73119L-79.4271 -161.14L4.42428 -262.894M4.42428 -262.894L186.008 -140.155M4.42428 -262.894L219.328 -278.118M4.42428 -262.894L52.4842 -140.912M4.42428 -262.894L-191.681 -154.509M4.42428 -262.894L-69.742 -369.11M219.328 -278.118L186.008 -140.155M219.328 -278.118L-69.742 -369.11M-191.681 -154.509L-69.742 -369.11" stroke="#3BB8BC" stroke-opacity="0.3" stroke-width="2.01862" stroke-linecap="round" stroke-linejoin="round"/>
</g>
<defs>
<filter id="filter0_df_1335_2271" x="-137.592" y="-670.594" width="1245.06" height="1245.06" filterUnits="userSpaceOnUse" color-interpolation-filters="sRGB">
<feFlood flood-opacity="0" result="BackgroundImageFix"/>
<feColorMatrix in="SourceAlpha" type="matrix" values="0 0 0 0 0 0 0 0 0 0 0 0 0 0 0 0 0 0 127 0" result="hardAlpha"/>
<feOffset/>
<feGaussianBlur stdDeviation="113.254"/>
<feComposite in2="hardAlpha" operator="out"/>
<feColorMatrix type="matrix" values="0 0 0 0 0.0352941 0 0 0 0 0.768627 0 0 0 0 0.764706 0 0 0 1 0"/>
<feBlend mode="normal" in2="BackgroundImageFix" result="effect1_dropShadow_1335_2271"/>
<feBlend mode="normal" in="SourceGraphic" in2="effect1_dropShadow_1335_2271" result="shape"/>
<feGaussianBlur stdDeviation="226.507" result="effect2_foregroundBlur_1335_2271"/>
</filter>
</defs>
</svg>
