<svg width="147" height="18" viewBox="0 0 147 18" fill="none" xmlns="http://www.w3.org/2000/svg">
<path d="M0 0.0044214H10.6666C12.6392 -0.0630832 14.5591 0.644624 16.0105 1.97425C16.7062 2.6239 17.2541 3.41385 17.6177 4.29118C17.9813 5.1685 18.152 6.11294 18.1185 7.0612C18.1561 8.00069 17.987 8.93701 17.6229 9.80478C17.2588 10.6725 16.7085 11.4508 16.0105 12.0853C14.5406 13.3772 12.6274 14.0581 10.6666 13.987H4.11592V18H0.0263519L0 0.0044214ZM4.08957 3.71355V10.2831H10.5032C11.4353 10.3288 12.3509 10.026 13.0698 9.43442C13.3971 9.13441 13.6534 8.76592 13.8202 8.35553C13.987 7.94514 14.0601 7.50307 14.0342 7.0612C14.0549 6.61055 13.9797 6.16064 13.8135 5.74086C13.6473 5.32108 13.3939 4.94088 13.0698 4.62512C12.3687 3.99662 11.4462 3.66897 10.5032 3.71355H4.08957Z" fill="#030810"/>
<path d="M20.9006 0.00431262H31.5672C33.5412 -0.0623107 35.4624 0.645183 36.9163 1.97414C37.6114 2.62421 38.1591 3.41424 38.5226 4.29146C38.8861 5.16869 39.0572 6.11291 39.0243 7.06109C39.0243 9.79579 37.8579 11.7901 35.525 13.0439L38.3023 17.9894H33.8544L31.7464 13.9869H24.9901V17.9999H20.9006V0.00431262ZM24.9901 3.71345V10.283H31.4038C32.3359 10.3287 33.2515 10.0259 33.9703 9.43431C34.2977 9.1343 34.554 8.76581 34.7208 8.35542C34.8876 7.94503 34.9606 7.50296 34.9348 7.06109C34.9555 6.61044 34.8802 6.16053 34.7141 5.74075C34.5479 5.32097 34.2944 4.94077 33.9703 4.62501C33.2693 3.99651 32.3468 3.66886 31.4038 3.71345H24.9901Z" fill="#030810"/>
<path d="M48.9377 0.00390625H55.578L63.2617 17.9995H58.9244L57.744 15.2648H46.6136L45.4331 17.9995H41.0536L48.9377 0.00390625ZM51.4884 3.6135L48.1155 11.7128H56.1629L52.8955 3.6135H51.4884Z" fill="#030810"/>
<path d="M65.8821 0.00390625H69.7398L80.5645 12.1005V0.00390625H84.6224V17.989H80.7331L69.9031 5.86099V17.989H65.8821V0.00390625Z" fill="#030810"/>
<path d="M95.1204 0.00390625H101.761L109.45 17.9995H105.134L103.953 15.2648H92.8016L91.6 17.9995H87.2206L95.1204 0.00390625ZM97.6764 3.6135L94.3036 11.7128H102.351L99.0782 3.6135H97.6764Z" fill="#030810"/>
<path d="M125.575 0.00390625H121.485V17.9838H125.575V0.00390625Z" fill="#030810"/>
<path d="M128.196 0.00390625H147V3.65018H139.643V17.989H135.553V3.65018H128.196V0.00390625Z" fill="#030810"/>
</svg>
