<svg width="229" height="50" viewBox="0 0 229 50" fill="none" xmlns="http://www.w3.org/2000/svg">
<path d="M49.1457 22.644V22.4805C49.1518 17.8599 47.7348 13.35 45.0881 9.56619C42.4414 5.78233 38.6939 2.90881 34.3569 1.33771C30.02 -0.233385 25.3048 -0.425541 20.8548 0.787473C16.4049 2.00049 12.4368 4.55959 9.49213 8.11558C7.66734 7.64312 5.73239 7.86755 4.0636 8.74523C2.39482 9.6229 1.1115 11.0911 0.463241 12.8642C-0.185018 14.6373 -0.151874 16.5886 0.556228 18.3386C1.26433 20.0886 2.59677 21.5122 4.29439 22.3324C4.29439 22.3792 4.29439 22.4259 4.29439 22.4766C4.30192 27.374 5.90373 32.1353 8.85677 36.0381C11.8098 39.9408 15.9529 42.7719 20.6573 44.1018C20.8441 45.6169 21.5794 47.0107 22.7238 48.0187C23.8682 49.0266 25.3421 49.5786 26.8659 49.57C28.3896 49.5614 29.8571 48.9926 30.9901 47.9717C32.1231 46.9509 32.8426 45.5488 33.0122 44.0317C35.9174 43.1741 38.6199 41.7379 40.958 39.809C43.296 37.8802 45.2214 35.4983 46.6188 32.8062C46.9264 32.8644 47.2387 32.8944 47.5518 32.8958C48.8038 32.8983 50.0153 32.4517 50.967 31.6368C51.9188 30.8219 52.5479 29.6925 52.7405 28.4531C52.9332 27.2137 52.6765 25.9462 52.0172 24.8799C51.3578 23.8136 50.3392 23.0191 49.1457 22.6402M26.827 39.2797C27.6629 39.2789 28.4803 39.5266 29.1758 39.9914C29.8712 40.4561 30.4135 41.1171 30.7339 41.8907C31.0543 42.6642 31.1386 43.5157 30.976 44.3372C30.8134 45.1588 30.4112 45.9135 29.8204 46.506C29.2295 47.0986 28.4766 47.5022 27.6567 47.6659C26.8369 47.8296 25.987 47.7459 25.2146 47.4256C24.4422 47.1053 23.782 46.5626 23.3175 45.8662C22.853 45.1699 22.605 44.3512 22.605 43.5136C22.605 42.3914 23.0497 41.3151 23.8414 40.5212C24.633 39.7273 25.7069 39.2807 26.827 39.2797ZM47.5518 30.9093C46.9066 30.9101 46.2756 30.7191 45.7387 30.3604C45.2018 30.0018 44.7831 29.4917 44.5356 28.8947C44.2882 28.2976 44.223 27.6404 44.3484 27.0062C44.4738 26.372 44.7842 25.7894 45.2402 25.332C45.6962 24.8746 46.2774 24.5629 46.9102 24.4365C47.543 24.3101 48.199 24.3746 48.7952 24.6218C49.3915 24.869 49.9011 25.2879 50.2597 25.8254C50.6182 26.3629 50.8096 26.9949 50.8096 27.6414C50.8076 28.5068 50.4638 29.3362 49.8534 29.9485C49.243 30.5608 48.4156 30.9062 47.5518 30.9093ZM39.7338 16.8872C39.7308 13.9285 38.5563 11.0919 36.4682 8.99981C34.3801 6.90772 31.5489 5.73102 28.5958 5.72793H20.599L31.0956 23.5321L32.845 22.5856L24.094 7.71439H28.6075C29.8098 7.71439 31.0003 7.95165 32.1111 8.41262C33.2219 8.8736 34.2311 9.54927 35.0813 10.401C35.9314 11.2528 36.6058 12.264 37.0659 13.3769C37.526 14.4898 37.7628 15.6826 37.7628 16.8872C37.7628 18.0918 37.526 19.2846 37.0659 20.3975C36.6058 21.5104 35.9314 22.5216 35.0813 23.3733C34.2311 24.2251 33.2219 24.9008 32.1111 25.3617C31.0003 25.8227 29.8098 26.06 28.6075 26.06H22.7217V28.0464H28.5958C30.1894 28.0469 31.764 27.7 33.2104 27.0298L39.8194 38.1969C37.7706 39.919 35.4033 41.2201 32.8528 42.0257C32.5033 40.6869 31.7191 39.5027 30.6237 38.6598C29.5283 37.8169 28.184 37.3632 26.8028 37.3704C25.4217 37.3775 24.0821 37.845 22.9955 38.6992C21.9088 39.5534 21.1368 40.7457 20.8012 42.088C18.1748 41.2823 15.736 39.958 13.6285 38.193L25.4702 17.7051L23.7597 16.6924L12.1357 36.8142C8.49727 33.1179 6.41046 28.1655 6.30429 22.9751C6.72895 23.0519 7.15956 23.091 7.59109 23.092C9.2577 23.0947 10.8789 22.5476 12.2042 21.5352C13.5296 20.5228 14.4855 19.1015 14.9243 17.4906C15.363 15.8797 15.2603 14.1689 14.632 12.6223C14.0036 11.0757 12.8845 9.77942 11.4476 8.93353C14.1882 5.81953 17.8095 3.61454 21.8306 2.6114C25.8516 1.60826 30.0821 1.85445 33.9602 3.31726C37.8383 4.78008 41.1804 7.3903 43.5428 10.8013C45.9052 14.2122 47.176 18.2625 47.1864 22.4142C46.0863 22.497 45.0403 22.9252 44.1971 23.638C43.3539 24.3508 42.7566 25.3118 42.4901 26.3843C42.2235 27.4569 42.3013 28.5863 42.7124 29.612C43.1236 30.6377 43.847 31.5073 44.78 32.0973C43.8594 33.8242 42.6983 35.411 41.3316 36.8103L34.956 26.0444C36.4374 25.0216 37.6485 23.6533 38.4848 22.0574C39.3212 20.4615 39.7579 18.6858 39.7572 16.8833M13.2048 15.4811C13.2056 16.5937 12.877 17.6815 12.2606 18.6069C11.6442 19.5324 10.7678 20.2539 9.74206 20.6801C8.71635 21.1064 7.5875 21.2184 6.49829 21.0018C5.40908 20.7852 4.40845 20.2499 3.62297 19.4634C2.83749 18.677 2.30245 17.6748 2.08553 16.5837C1.86861 15.4925 1.97955 14.3615 2.40433 13.3335C2.8291 12.3055 3.54862 11.4269 4.47187 10.8087C5.39513 10.1905 6.48063 9.86055 7.59109 9.86055C9.07863 9.86261 10.5047 10.4553 11.5569 11.5088C12.6092 12.5623 13.2017 13.9907 13.2048 15.4811Z" fill="#43B7B7"/>
<path d="M70.0449 15.0907H81.579C83.712 15.0176 85.7881 15.784 87.3575 17.2239C88.1098 17.9274 88.7023 18.7828 89.0954 19.7329C89.4886 20.6829 89.6732 21.7056 89.637 22.7325C89.6776 23.7499 89.4947 24.7638 89.101 25.7035C88.7073 26.6432 88.1123 27.4861 87.3575 28.1731C85.7681 29.5722 83.6992 30.3095 81.579 30.2325H74.4956V34.5782H70.0734L70.0449 15.0907ZM74.4671 19.1073V26.2215H81.4024C82.4103 26.271 83.4003 25.9431 84.1776 25.3025C84.5316 24.9776 84.8088 24.5786 84.9891 24.1341C85.1694 23.6897 85.2485 23.211 85.2205 22.7325C85.2429 22.2445 85.1615 21.7573 84.9818 21.3027C84.8021 20.8481 84.5281 20.4364 84.1776 20.0945C83.4196 19.4139 82.422 19.0591 81.4024 19.1073H74.4671Z" fill="white"/>
<path d="M92.6455 15.0906H104.18C106.314 15.0185 108.392 15.7846 109.964 17.2237C110.715 17.9277 111.308 18.7832 111.701 19.7332C112.094 20.6831 112.279 21.7056 112.243 22.7324C112.243 25.6938 110.982 27.8534 108.459 29.2112L111.463 34.5667H106.653L104.373 30.2324H97.0677V34.578H92.6455V15.0906ZM97.0677 19.1072V26.2214H104.003C105.011 26.2709 106.001 25.943 106.778 25.3024C107.132 24.9775 107.409 24.5784 107.59 24.134C107.77 23.6896 107.849 23.2109 107.821 22.7324C107.843 22.2444 107.762 21.7572 107.582 21.3026C107.403 20.848 107.129 20.4363 106.778 20.0944C106.02 19.4138 105.023 19.059 104.003 19.1072H97.0677Z" fill="white"/>
<path d="M122.963 15.0918H130.143L138.452 34.5792H133.762L132.485 31.6178H120.45L119.173 34.5792H114.438L122.963 15.0918ZM125.721 19.0006L122.074 27.7714H130.776L127.242 19.0006H125.721Z" fill="white"/>
<path d="M141.285 15.0918H145.457L157.162 28.1912V15.0918H161.55V34.5679H157.344L145.633 21.4344V34.5679H141.285V15.0918Z" fill="white"/>
<path d="M172.901 15.0918H180.081L188.395 34.5792H183.728L182.452 31.6178H170.393L169.094 34.5792H164.358L172.901 15.0918ZM175.665 19.0006L172.017 27.7714H180.719L177.18 19.0006H175.665Z" fill="white"/>
<path d="M205.832 15.0918H201.41V34.5622H205.832V15.0918Z" fill="white"/>
<path d="M208.668 15.0918H229.001V19.0403H221.045V34.5679H216.623V19.0403H208.668V15.0918Z" fill="white"/>
</svg>
