<svg width="630" height="1514" viewBox="0 0 630 1514" fill="none" xmlns="http://www.w3.org/2000/svg">
<mask id="mask0_1399_8" style="mask-type:alpha" maskUnits="userSpaceOnUse" x="0" y="0" width="630" height="1514">
<rect width="630" height="1513.68" transform="matrix(-1 0 0 1 630 0)" fill="#D9D9D9"/>
</mask>
<g mask="url(#mask0_1399_8)">
<path d="M196.335 1469.21L256.938 1226.64L588.266 1373.51L196.335 1469.21Z" stroke="#3BB8BC" stroke-width="2.8735" stroke-linecap="round" stroke-linejoin="round"/>
<path d="M849.273 1362.36L588.581 1374.17L449.301 1042.68L849.273 1362.36Z" stroke="#3BB8BC" stroke-width="2.8735" stroke-linecap="round" stroke-linejoin="round"/>
<path d="M256.935 1226.65L448.182 1042.88L181.008 898.453L256.935 1226.65Z" stroke="#3BB8BC" stroke-width="2.8735" stroke-linecap="round" stroke-linejoin="round"/>
<path d="M448.957 1042.2L648.789 884.893L554.11 760.398L448.957 1042.2Z" stroke="#3BB8BC" stroke-width="2.8735" stroke-linecap="round" stroke-linejoin="round"/>
<path d="M648.792 884.898L816.951 962.117L667.743 478.676L554.113 760.403L648.792 884.898Z" stroke="#3BB8BC" stroke-width="2.8735" stroke-linecap="round" stroke-linejoin="round"/>
<path d="M1034.11 810.271L667.754 478.68L1007.6 1050.96L1034.11 810.271Z" stroke="#3BB8BC" stroke-width="2.8735" stroke-linecap="round" stroke-linejoin="round"/>
<path d="M1252.14 728.607L1019.11 544.778L811.515 633.024M1252.14 728.607L811.515 633.024M1252.14 728.607L979.554 828.971M811.515 633.024L816.598 411.171L604.456 486.623L811.515 633.024ZM811.515 633.024L979.554 828.971M811.515 633.024L661.101 746.429L979.554 828.971M979.554 828.971L845.53 856.375M979.554 828.971L661.105 746.429L543.399 911.88L845.53 856.375M979.554 828.971L836.299 1024.7M845.53 856.375L543.406 911.885L836.299 1024.7M549.435 1142.54L543.238 912.33L300.811 1241.24L549.435 1142.54ZM549.435 1142.54L763.049 1323.25M549.435 1142.54L836.299 1024.7M836.299 1024.7L763.049 1323.25M763.049 1323.25L300.817 1241.24L514.114 1441.94L763.049 1323.25ZM1151.53 -124.721L1195.56 111.276L915.234 136.679L1151.53 -124.721ZM1176.66 332.174L931.361 289.691L915.135 137.438L1176.66 332.174ZM1149.97 115.424L1118.67 182.507L915.136 137.442L1149.97 115.424ZM931.355 289.685L816.599 411.174L1018.63 544.837L931.355 289.685Z" stroke="#3BB8BC" stroke-opacity="0.3" stroke-width="1.91567" stroke-linecap="round" stroke-linejoin="round"/>
</g>
</svg>
