<svg width="24" height="24" viewBox="0 0 24 24" fill="none" xmlns="http://www.w3.org/2000/svg">
<path fill-rule="evenodd" clip-rule="evenodd" d="M11.5754 0.0996094C12.2796 0.0996094 12.8504 0.670446 12.8504 1.37461V13.0148L17.5358 8.91507C18.0657 8.45138 18.8712 8.50508 19.3349 9.03502C19.7986 9.56495 19.7449 10.3705 19.215 10.8341L12.415 16.7841C11.9343 17.2048 11.2165 17.2048 10.7358 16.7841L3.9358 10.8341C3.40586 10.3705 3.35216 9.56495 3.81586 9.03502C4.27955 8.50508 5.08505 8.45138 5.61498 8.91507L10.3004 13.0148V1.37461C10.3004 0.670446 10.8712 0.0996094 11.5754 0.0996094ZM2.65039 20.9246C2.65039 20.2204 3.22123 19.6496 3.92539 19.6496H19.2254C19.9296 19.6496 20.5004 20.2204 20.5004 20.9246C20.5004 21.6288 19.9296 22.1996 19.2254 22.1996H3.92539C3.22123 22.1996 2.65039 21.6288 2.65039 20.9246Z" fill="#43B7B7"/>
</svg>
